<?xml version="1.0" encoding="UTF-8" standalone="no"?>
<svg xmlns:rdf="http://www.w3.org/1999/02/22-rdf-syntax-ns#" xmlns="http://www.w3.org/2000/svg" height="381pt" width="499pt" version="1.1" xmlns:cc="http://creativecommons.org/ns#" xmlns:dc="http://purl.org/dc/elements/1.1/" viewBox="0 0 499 381">
<path fill='#40c4ff' d="m219.85 3.03c8.88 13.34 32.81-3.71 37.1 15.97-12.34-8.42-26.31-0.54-40.01-2.53-4.56 8.13-7.99 16.93-11.98 25.36 13.4 8.01 27.38 16.8 42.03 21.73 3.17-9.78-2.3-21.45-6.81-30.74 13.65 7.88 26.59 16.92 40.03 25.17 1.82 1.27 4.83 1.51 5.62-1.05 7.83-15.47 16.54-30.49 24.19-46.05 5.16 12.5 22.56-0.59 30.48 10.68-11.29-0.72-22.5 1.41-33.62 3.02-5.38 13.02-12.34 25.75-16.76 39.07 11.09 8.28 24.71 12.9 35.61 21.58 15.61 18.57 20.09 45.74 12.45 68.63 30.37 45.04 78.18 73.42 123.37 101.46 12.95-0.68 24.56-8.84 37.45-10.74v2.84c-47.64 23.03-98.15 39.83-146.43 61.11-10.25 19.94-20.18 41.97-40.41 53.69-40.17 10.93-82.11 12.09-123.42 14.53-42.63 0.51-88.04 2.81-127.59-15.97-8.66-28.55-23.68-55.11-43.23-77.72-1.96-3.98-8.54-7.62-7.18-12.33 53.68-46.9 88.69-110.08 129.94-167.18 1.42-3.94-4.36-4.53-5.66-7.55 18.74 4.18 22.22-22.19 34.94-31.13-0.44 9.3-6.46 16.92-7.94 25.83 14.14-4.44 23.25-21.76 17.87-36.08-2.93-15.2-13.88-26.71-22.98-38.52 15.18 5.19 27.46 16.05 41.92 22.69 9.15-10.45 14.05-23.89 21.02-35.77m-50.78 103.1c-2.1 2.12-3.02 6.02 0.22 7.58 15.62 9.19 30.51 20.15 46.65 28.23-8.26-18.7-27.63-30.61-46.87-35.81m-15.68 1.13c-9.95 20.44-22.91 39.27-34.05 59.07-23.32 40.93-39.19 85.68-50.64 131.23-2.79 4.96-12.88 4.17-13.57 10.3 4.76 1.48 10.17 1.73 14.91 0.58 12.94-25.73 24.06-52.65 36.79-78.62 1.36-3.75 4.96-8.29 1.11-11.68-3.17-4.68 5.13 1.59 4.86-3.21 16.4-33.8 31.69-68.17 46.16-102.82-1.14-2.1-2.51-6.02-5.57-4.85m9.75 11.91c-14.25 26.68-24.96 55.54-38.11 82.94-0.84 1.99-4.28 8.94 0.46 7.46 15.71-5.56 31.15-14.44 40.51-28.61 9.71-18.86 10.76-45.33-2.86-61.79m70.42 3.07c-2.88 4.96 20.52 19.95 22.68 6.89 3.3-11.9-16.89-5.3-22.68-6.89m31.66 4.8c-2.54 3.6-5.2 8.01-5.01 12.51 14.83 10.48 31.38 18.64 46.54 28.77 3.26 1.79 2.19-2.54 1.33-4.23-9.11-17.02-24.58-30.75-42.86-37.05m66.26 37.33c-5.21 4.41-10.24 9.1-16.48 12.06 1.85 14.12 0.95 29.38-6.97 41.66-1.89 4.34-6.65 9.32-3.1 13.99 9.14 16.65 8.86 36.54 5.11 54.65 29.79 8.83 63.24-1.27 90.8-11.51-27.48-33.14-51.05-69.97-66.98-110.12-0.54-1.16-1.33-1.41-2.38-0.73m-107.07 15.05c-15.04 0.04 4.26 9.69 8.83 8.91 6.75-6.79-1.41-11.21-8.83-8.91m19.98 3.75c-1.62 3.07-3.79 6.09-4.24 9.61 18.91 11.71 38.08 23.11 56.54 35.55 2.96 2.16 4.17-3.66 2.31-5.21-11.3-20.26-32.28-34.86-54.61-39.95m-125.04 32.05c-1.4 2.35-2.51 6.34 0.56 7.76 23.32 16.28 48.99 28.73 73.71 42.65 2.77 1.53 4.37-1.54 2.66-3.71-17.47-25.78-47.08-41.04-76.93-46.7m-6.23 17.85c-8.46 22-15.89 44.99-21.97 67.67 18.19-5.79 22.4-28.43 25.79-44.98-0.36-6.85 2.03-18.46-3.82-22.69m301.73 18.28c-10.56 1.02-15.4 15.24-8.45 22.54 13.56-2.12 27.31-8.39 39.5-12.97-5.81-8.54-21.01-10.33-31.05-9.57m-164.21 13.2c-16.52 3.25-45.27 2.52-46.21 25.15 33.7-3 67.61-4.61 101.39-1.96 4.99-3.06 0.18-10.09-2.98-12.58-14.61-11.21-34.61-12.12-52.2-10.61m-59.99 15.98c-12.07 3.74-24.24 8.17-34.98 14.96 11.19 1.12 22.42-3.27 33.4-5.16 3.39-1.91 9.52-13.22 1.58-9.8m-167.46 2.23c7.52 9.13 16.03 19.02 26.4 24.51-7.34-9.35-17.49-16.56-26.4-24.51m127.26 5.61c-17.84 3.4-35.51 9.05-52.59 14.96 15.31-0.19 32.88-1.41 48.27-6.03 3.37-1.01 12.51-10.11 4.32-8.93z"/>
</svg>
