<?xml version="1.0" encoding="utf-8"?>

<!DOCTYPE svg PUBLIC "-//W3C//DTD SVG 1.1//EN" "http://www.w3.org/Graphics/SVG/1.1/DTD/svg11.dtd">
<svg version="1.1" id="Layer_1" xmlns="http://www.w3.org/2000/svg" xmlns:xlink="http://www.w3.org/1999/xlink" x="0px" y="0px"
	 viewBox="0 0 1893.179 1667.318" enable-background="new 0 0 1893.179 1667.318" xml:space="preserve">
<g>
	<path fill="#40c4ff" d="M1715.072,1521.656c-9.396,9.392-18.792,18.784-28.187,28.177c-11.682-11.886-23.718-23.429-35.432-35.293
		c6.265-6.254,12.529-12.51,18.791-18.766c2.287-8.552,4.572-17.104,6.856-25.657c16.132,4.213,32.146,8.865,48.281,13.039
		C1721.943,1495.989,1718.507,1508.823,1715.072,1521.656z"/>
	<path fill="#40c4ff" d="M178.107,1521.656c-3.435-12.833-6.871-25.667-10.309-38.5c16.134-4.174,32.149-8.826,48.281-13.039
		c2.284,8.553,4.569,17.105,6.856,25.657c6.263,6.256,12.526,12.512,18.791,18.766c-11.714,11.864-23.75,23.407-35.432,35.293
		C196.899,1540.44,187.503,1531.048,178.107,1521.656z"/>
	<path fill="#40c4ff" d="M946.589,190.606c12.832,3.442,25.664,6.883,38.496,10.322c-4.452,16.06-8.431,32.255-12.848,48.332
		c-8.549-2.299-17.098-4.595-25.648-6.891c-8.549,2.295-17.099,4.592-25.648,6.891c-4.418-16.077-8.396-32.272-12.848-48.332
		C920.926,197.488,933.758,194.047,946.589,190.606z"/>
	<path fill="#40c4ff" d="M1850.992,1600.13c-9.01,8.979-19.324,16.859-31.081,21.844c-9.817,4.491-20.599,5.809-31.124,7.674
		c-14.565,2.24-29.248,4.105-43.996,4.008c-25.711-0.739-52.462-5.498-73.983-20.406c-16.258-10.568-29.216-25.133-42.924-38.637
		c-27.887-27.855-55.731-55.763-83.608-83.64c11.811-11.779,23.547-23.621,35.411-35.336c15.873,15.937,31.778,31.842,47.693,47.725
		c17.105,17.148,34.071,34.457,52.13,50.598c8.188,7.042,16.333,14.597,26.483,18.734c15.23,6.366,32.013,7.792,48.368,7.706
		c9.314,0.118,18.627-0.461,27.876-1.511c7.251-0.652,13.872-3.365,20.18-6.803c-0.176-7.181-1.137-14.272-4.198-20.878
		c-3.715-8.535-7.871-16.89-12.63-24.897c-8.103-14.207-17.729-28.029-30.858-38.035c-8.657-6.721-19.274-9.997-29.466-13.568
		c-23.008-7.569-46.48-13.608-69.884-19.847c-21.713-5.842-43.44-11.663-65.178-17.441c4.213-16.132,8.601-32.217,12.896-48.335
		c38.08,10.203,76.171,20.363,114.238,30.586c18.549,5.119,37.641,9.058,54.922,17.855c23.671,11.184,41.168,31.971,54.664,53.868
		c7.457,12.723,13.184,26.372,18.526,40.105c3.647,10.047,7.897,20.043,8.916,30.791
		C1855.93,1574.965,1854.263,1587.837,1850.992,1600.13z"/>
	<path fill="#40c4ff" d="M42.187,1600.13c-3.271-12.292-4.939-25.165-3.377-37.839c1.02-10.747,5.269-20.744,8.916-30.791
		c5.343-13.734,11.069-27.382,18.526-40.105c13.496-21.897,30.993-42.685,54.664-53.868c17.281-8.797,36.374-12.735,54.922-17.855
		c38.067-10.224,76.158-20.383,114.238-30.586c4.295,16.118,8.684,32.203,12.896,48.335c-21.738,5.778-43.465,11.599-65.178,17.441
		c-23.403,6.24-46.876,12.278-69.884,19.847c-10.192,3.57-20.808,6.847-29.466,13.568c-13.128,10.006-22.754,23.828-30.858,38.035
		c-4.759,8.007-8.914,16.362-12.629,24.897c-3.061,6.606-4.022,13.696-4.198,20.878c6.308,3.438,12.928,6.151,20.18,6.803
		c9.249,1.05,18.563,1.629,27.876,1.511c16.355,0.086,33.139-1.34,48.368-7.706c10.15-4.137,18.295-11.693,26.483-18.734
		c18.059-16.141,35.025-33.449,52.13-50.598c15.916-15.883,31.82-31.788,47.693-47.725c11.864,11.714,23.6,23.557,35.411,35.336
		c-27.876,27.876-55.721,55.785-83.608,83.64c-13.708,13.504-26.665,28.069-42.924,38.637
		c-21.521,14.908-48.272,19.667-73.983,20.406c-14.747,0.097-29.43-1.768-43.996-4.008c-10.525-1.865-21.307-3.183-31.124-7.674
		C61.511,1616.989,51.197,1609.109,42.187,1600.13z"/>
	<path fill="#40c4ff" d="M946.589,33.659c12.281,3.313,24.263,8.305,34.458,15.995c8.798,6.257,15.33,14.935,22.208,23.117
		c9.223,11.494,18.179,23.277,25.469,36.097c12.215,22.636,21.47,48.183,19.319,74.274c-1.022,19.364-7.158,37.868-11.999,56.492
		c-10.179,38.078-20.427,76.146-30.63,114.226c-16.106-4.339-32.23-8.581-48.307-12.999c5.865-21.715,11.687-43.441,17.485-65.166
		c6.298-23.388,12.805-46.735,17.754-70.445c2.004-10.612,4.475-21.444,2.983-32.302c-2.101-16.372-9.259-31.62-17.511-45.741
		c-4.555-8.125-9.713-15.901-15.247-23.386c-4.19-5.954-9.85-10.331-15.982-14.074c-6.131,3.744-11.791,8.12-15.982,14.074
		c-5.534,7.485-10.692,15.261-15.247,23.386c-8.252,14.121-15.409,29.369-17.511,45.741c-1.492,10.858,0.979,21.69,2.983,32.302
		c4.949,23.71,11.456,47.057,17.754,70.445c5.798,21.725,11.619,43.451,17.485,65.166c-16.077,4.418-32.201,8.66-48.307,12.999
		c-10.203-38.08-20.451-76.148-30.63-114.226c-4.841-18.623-10.976-37.127-11.999-56.492c-2.15-26.092,7.104-51.638,19.319-74.274
		c7.29-12.82,16.247-24.603,25.469-36.097c6.877-8.182,13.41-16.86,22.208-23.117C922.327,41.964,934.308,36.972,946.589,33.659z"/>
	<path fill="#40c4ff" d="M1579.202,1443.211c-35.55,35.544-71.116,71.077-106.668,106.622c-11.682-11.886-23.718-23.429-35.432-35.293
		c32.441-32.384,64.844-64.805,97.246-97.226c11.877-44.271,23.752-88.544,35.577-132.83c16.132,4.213,32.146,8.865,48.281,13.039
		C1605.198,1346.085,1592.209,1394.652,1579.202,1443.211z"/>
	<path fill="#40c4ff" d="M313.977,1443.211c-13.007-48.56-25.996-97.127-39.003-145.688c16.134-4.174,32.149-8.826,48.281-13.039
		c11.825,44.286,23.701,88.559,35.577,132.83c32.401,32.421,64.805,64.842,97.246,97.226c-11.714,11.864-23.75,23.407-35.432,35.293
		C385.093,1514.288,349.528,1478.756,313.977,1443.211z"/>
	<path fill="#40c4ff" d="M946.589,347.495c48.558,13.015,97.112,26.05,145.671,39.066c-4.452,16.06-8.431,32.255-12.848,48.332
		c-44.266-11.902-88.545-23.754-132.823-35.604c-44.278,11.85-88.557,23.702-132.823,35.604
		c-4.418-16.077-8.396-32.272-12.848-48.332C849.477,373.545,898.032,360.51,946.589,347.495z"/>
	<path fill="#40c4ff" d="M1603.223,1562.844c11.811,11.746,23.547,23.568,35.368,35.304c-13.311,14.008-30.224,25.369-49.494,28.916
		c-27.458,5.059-55.742,9.217-83.565,4.426c-12.872-2.261-25.861-5.252-37.501-11.425c-16.044-8.188-29.709-20.245-42.173-33.096
		c-31.971-32.013-63.962-63.995-95.933-95.997c11.811-11.779,23.546-23.621,35.411-35.336
		c14.426,14.501,28.927,28.938,43.363,43.428c15.412,15.208,30.374,30.888,46.311,45.55c8.135,7.685,16.441,15.24,25.465,21.875
		c12.325,8.745,27.566,11.896,42.345,13.333c13.547,0.932,27.169,0.825,40.684-0.461c5.423-0.589,10.996-1.018,16.044-3.237
		C1587.918,1572.608,1595.646,1567.775,1603.223,1562.844z"/>
	<path fill="#40c4ff" d="M1038.184,266.875c4.267-16.102,8.637-32.176,12.89-48.281c18.787,4.524,37.082,13.49,49.789,28.405
		c18.11,21.25,35.853,43.665,45.616,70.156c4.477,12.278,8.383,25.022,8.856,38.189c0.931,17.989-2.679,35.852-7.575,53.071
		c-11.739,43.694-23.44,87.39-35.17,131.079c-16.106-4.339-32.23-8.581-48.307-12.999c5.345-19.744,10.597-39.52,15.928-59.267
		c5.465-20.951,11.563-41.748,16.292-62.881c2.588-10.887,4.978-21.858,6.211-32.99c1.411-15.047-3.48-29.821-9.626-43.338
		c-5.966-12.198-12.87-23.942-20.741-35.003c-3.222-4.402-6.38-9.014-10.825-12.276
		C1054.292,275.248,1046.242,270.972,1038.184,266.875z"/>
	<path fill="#40c4ff" d="M198.361,1404.198c-16.078,4.355-32.184,8.608-48.258,12.978c-5.476-18.532-6.858-38.859-0.295-57.321
		c9.348-26.309,19.889-52.882,37.949-74.582c8.394-10.016,17.479-19.771,28.645-26.764c15.113-9.801,32.388-15.606,49.749-19.975
		c43.71-11.681,87.402-23.396,131.102-35.082c4.295,16.118,8.684,32.203,12.896,48.334c-19.771,5.243-39.524,10.583-59.291,15.84
		c-20.877,5.743-41.937,10.86-62.602,17.331c-10.722,3.202-21.419,6.618-31.676,11.116c-13.736,6.301-24.085,17.924-32.719,30.006
		c-7.581,11.266-14.299,23.116-19.943,35.464c-2.201,4.991-4.616,10.032-5.219,15.513
		C197.558,1386.062,197.88,1395.171,198.361,1404.198z"/>
	<path fill="#40c4ff" d="M289.956,1562.844c-11.811,11.746-23.546,23.568-35.368,35.304c13.311,14.008,30.224,25.369,49.494,28.916
		c27.458,5.059,55.742,9.217,83.565,4.426c12.872-2.261,25.861-5.252,37.501-11.425c16.044-8.188,29.709-20.245,42.174-33.096
		c31.97-32.013,63.962-63.995,95.933-95.997c-11.811-11.779-23.546-23.621-35.411-35.336
		c-14.426,14.501-28.927,28.938-43.363,43.428c-15.412,15.208-30.374,30.888-46.311,45.55c-8.135,7.685-16.441,15.24-25.465,21.875
		c-12.325,8.745-27.566,11.896-42.345,13.333c-13.547,0.932-27.169,0.825-40.684-0.461c-5.423-0.589-10.996-1.018-16.044-3.237
		C305.26,1572.608,297.533,1567.775,289.956,1562.844z"/>
	<path fill="#40c4ff" d="M1694.818,1404.198c16.078,4.355,32.184,8.608,48.258,12.978c5.476-18.532,6.858-38.859,0.295-57.321
		c-9.348-26.309-19.889-52.882-37.949-74.582c-8.394-10.016-17.479-19.771-28.645-26.764c-15.113-9.801-32.388-15.606-49.749-19.975
		c-43.71-11.681-87.402-23.396-131.102-35.082c-4.295,16.118-8.684,32.203-12.896,48.334c19.771,5.243,39.524,10.583,59.291,15.84
		c20.877,5.743,41.937,10.86,62.602,17.331c10.722,3.202,21.419,6.618,31.676,11.116c13.736,6.301,24.085,17.924,32.719,30.006
		c7.581,11.266,14.299,23.116,19.943,35.464c2.201,4.991,4.616,10.032,5.219,15.513
		C1695.621,1386.062,1695.299,1395.171,1694.818,1404.198z"/>
	<path fill="#40c4ff" d="M854.995,266.875c-4.267-16.102-8.637-32.176-12.89-48.281c-18.787,4.524-37.082,13.49-49.789,28.405
		c-18.11,21.25-35.853,43.665-45.616,70.156c-4.477,12.278-8.383,25.022-8.856,38.189c-0.931,17.989,2.679,35.852,7.575,53.071
		c11.739,43.694,23.44,87.39,35.17,131.079c16.106-4.339,32.23-8.581,48.307-12.999c-5.345-19.744-10.597-39.52-15.928-59.267
		c-5.465-20.951-11.563-41.748-16.292-62.881c-2.588-10.887-4.978-21.858-6.212-32.99c-1.411-15.047,3.48-29.821,9.626-43.338
		c5.966-12.198,12.87-23.942,20.741-35.003c3.222-4.402,6.38-9.014,10.825-12.276C838.887,275.248,846.937,270.972,854.995,266.875z
		"/>
	<path fill="#40c4ff" d="M1526.192,1412.606c-10.043,10.043-20.119,20.06-30.101,30.17c-37.563-37.49-75.082-75.02-112.596-112.556
		c51.264,13.721,102.525,27.448,153.775,41.233C1533.504,1385.153,1529.867,1398.887,1526.192,1412.606z"/>
	<path fill="#40c4ff" d="M366.987,1412.606c-3.676-13.719-7.313-27.453-11.077-41.153c51.249-13.785,102.51-27.513,153.775-41.233
		c-37.514,37.536-75.033,75.066-112.596,112.556C387.106,1432.666,377.03,1422.649,366.987,1412.606z"/>
	<path fill="#40c4ff" d="M946.589,408.706c13.719,3.676,27.431,7.394,41.178,10.983c-13.686,51.276-27.428,102.533-41.178,153.789
		c-13.75-51.256-27.492-102.514-41.178-153.789C919.158,416.099,932.871,412.382,946.589,408.706z"/>
	<path fill="#40c4ff" d="M1307.401,1286.287c-16.439,16.432-32.878,32.865-49.315,49.302c-11.768-11.811-23.6-23.557-35.336-35.4
		c13.282-13.254,26.554-26.516,39.822-39.784c4.856-18.124,9.706-36.25,14.543-54.379c16.124,4.242,32.213,8.616,48.325,12.901
		C1319.424,1241.381,1313.412,1263.834,1307.401,1286.287z"/>
	<path fill="#40c4ff" d="M585.778,1286.287c-6.011-22.453-12.023-44.906-18.04-67.359c16.112-4.286,32.201-8.66,48.325-12.901
		c4.837,18.129,9.687,36.255,14.543,54.379c13.268,13.267,26.541,26.53,39.822,39.784c-11.736,11.843-23.568,23.589-35.336,35.4
		C618.656,1319.152,602.217,1302.719,585.778,1286.287z"/>
	<path fill="#40c4ff" d="M946.589,661.344c22.45,6.02,44.901,12.04,67.355,18.057c-4.344,16.097-8.601,32.217-12.99,48.302
		c-18.119-4.876-36.241-9.739-54.365-14.595c-18.124,4.857-36.246,9.72-54.365,14.595c-4.388-16.085-8.645-32.205-12.99-48.302
		C901.688,673.384,924.139,667.364,946.589,661.344z"/>
	<path fill="#40c4ff" d="M1388.829,1348.461c11.832,11.746,23.579,23.589,35.411,35.336c-55.313,55.378-110.702,110.691-166.058,166.036
		c-11.682-11.886-23.718-23.429-35.432-35.293C1278.16,1459.227,1333.462,1403.817,1388.829,1348.461z"/>
	<path fill="#40c4ff" d="M959.72,559.737c4.257-16.12,8.64-32.214,12.896-48.335c75.615,20.214,151.212,40.525,226.821,60.792
		c-4.452,16.06-8.431,32.255-12.848,48.332C1110.98,600.197,1035.343,580.008,959.72,559.737z"/>
	<path fill="#40c4ff" d="M491.22,1325.719c-16.089,4.374-32.218,8.625-48.307,12.999c-20.302-75.592-40.51-151.216-60.763-226.828
		c16.134-4.174,32.149-8.826,48.281-13.039C450.628,1174.494,470.963,1250.092,491.22,1325.719z"/>
	<path fill="#40c4ff" d="M504.35,1348.461c-11.832,11.746-23.579,23.589-35.411,35.336c55.313,55.378,110.702,110.691,166.058,166.036
		c11.682-11.886,23.718-23.429,35.432-35.293C615.019,1459.227,559.717,1403.817,504.35,1348.461z"/>
	<path fill="#40c4ff" d="M1401.959,1325.719c16.089,4.374,32.218,8.625,48.307,12.999c20.302-75.592,40.51-151.216,60.763-226.828
		c-16.134-4.174-32.149-8.826-48.281-13.039C1442.551,1174.494,1422.216,1250.092,1401.959,1325.719z"/>
	<path fill="#40c4ff" d="M933.459,559.737c-4.257-16.12-8.64-32.214-12.896-48.335c-75.615,20.214-151.212,40.525-226.821,60.792
		c4.452,16.06,8.431,32.255,12.848,48.332C782.198,600.197,857.836,580.008,933.459,559.737z"/>
	<path fill="#40c4ff" d="M1388.872,1562.844c11.811,11.746,23.546,23.568,35.368,35.304c-13.161,13.836-29.806,25.122-48.808,28.777
		c-25.894,4.759-52.43,8.938-78.763,5.348c-13.301-1.833-26.633-4.694-38.937-10.203c-16.559-7.717-30.866-19.484-43.578-32.453
		c-32.849-32.903-65.731-65.752-98.58-98.644c11.8-11.779,23.546-23.621,35.411-35.336c14.426,14.501,28.927,28.948,43.363,43.428
		c15.412,15.208,30.363,30.877,46.3,45.539c9.142,8.51,18.295,17.17,28.755,24.061c18.477,10.9,40.684,11.982,61.604,11.736
		c9.935-0.322,19.967-0.707,29.73-2.744C1370.931,1574.484,1379.944,1568.536,1388.872,1562.844z"/>
	<path fill="#40c4ff" d="M1145.359,452.509c4.267-16.102,8.637-32.176,12.89-48.281c18.563,4.48,36.659,13.251,49.325,27.88
		c17.068,20.045,33.956,40.937,44.013,65.537c5.063,12.435,9.251,25.412,10.632,38.822c1.597,18.198-1.441,36.474-6.316,53.966
		c-12.07,44.9-24.078,89.801-36.139,134.695c-16.101-4.33-32.23-8.581-48.307-12.999c5.345-19.744,10.606-39.525,15.928-59.267
		c5.465-20.951,11.559-41.734,16.288-62.866c2.799-12.172,5.722-24.429,6.46-36.933c0.201-21.451-9.965-41.224-20.639-59.219
		c-5.246-8.443-10.596-16.938-17.241-24.375C1164.41,462.227,1154.752,457.395,1145.359,452.509z"/>
	<path fill="#40c4ff" d="M305.537,1218.565c-16.078,4.355-32.184,8.608-48.258,12.978c-5.402-18.316-6.854-38.373-0.518-56.657
		c8.826-24.804,18.474-49.875,34.75-70.885c8.237-10.602,17.382-20.718,28.305-28.619c14.962-10.482,32.307-16.989,49.894-21.513
		c44.919-11.997,89.808-24.048,134.719-36.051c4.301,16.108,8.684,32.203,12.896,48.334c-19.771,5.243-39.533,10.577-59.291,15.84
		c-20.877,5.743-41.922,10.856-62.588,17.327c-11.941,3.662-24.017,7.259-35.215,12.872c-18.678,10.552-30.719,29.242-40.966,47.483
		c-4.689,8.765-9.371,17.646-12.489,27.119C304.427,1197.208,305.072,1207.988,305.537,1218.565z"/>
	<path fill="#40c4ff" d="M504.307,1562.844c-11.811,11.746-23.546,23.568-35.368,35.304c13.161,13.836,29.806,25.122,48.808,28.777
		c25.894,4.759,52.43,8.938,78.763,5.348c13.3-1.833,26.633-4.694,38.937-10.203c16.559-7.717,30.867-19.484,43.578-32.453
		c32.849-32.903,65.731-65.752,98.58-98.644c-11.8-11.779-23.546-23.621-35.411-35.336c-14.426,14.501-28.927,28.948-43.363,43.428
		c-15.412,15.208-30.363,30.877-46.3,45.539c-9.142,8.51-18.295,17.17-28.755,24.061c-18.477,10.9-40.684,11.982-61.604,11.736
		c-9.935-0.322-19.967-0.707-29.73-2.744C522.248,1574.484,513.234,1568.536,504.307,1562.844z"/>
	<path fill="#40c4ff" d="M1587.642,1218.565c16.078,4.355,32.184,8.608,48.258,12.978c5.402-18.316,6.854-38.373,0.518-56.657
		c-8.826-24.804-18.474-49.875-34.75-70.885c-8.237-10.602-17.382-20.718-28.305-28.619c-14.962-10.482-32.307-16.989-49.894-21.513
		c-44.919-11.997-89.808-24.048-134.719-36.051c-4.301,16.108-8.684,32.203-12.896,48.334c19.771,5.243,39.533,10.577,59.291,15.84
		c20.877,5.743,41.922,10.856,62.588,17.327c11.941,3.662,24.017,7.259,35.215,12.872c18.678,10.552,30.719,29.242,40.966,47.483
		c4.689,8.765,9.371,17.646,12.489,27.119C1588.751,1197.208,1588.107,1207.988,1587.642,1218.565z"/>
	<path fill="#40c4ff" d="M747.819,452.509c-4.267-16.102-8.637-32.176-12.89-48.281c-18.563,4.48-36.659,13.251-49.325,27.88
		c-17.068,20.045-33.956,40.937-44.013,65.537c-5.063,12.435-9.251,25.412-10.632,38.822c-1.597,18.198,1.441,36.474,6.316,53.966
		c12.07,44.9,24.078,89.801,36.139,134.695c16.101-4.33,32.23-8.581,48.307-12.999c-5.345-19.744-10.606-39.525-15.928-59.267
		c-5.465-20.951-11.559-41.734-16.288-62.866c-2.799-12.172-5.722-24.429-6.46-36.933c-0.201-21.451,9.965-41.224,20.639-59.219
		c5.246-8.443,10.596-16.938,17.241-24.375C728.769,462.227,738.427,457.395,747.819,452.509z"/>
	<path fill="#40c4ff" d="M1150.985,1241.286c55.303,55.421,110.702,110.734,166.079,166.09c-11.768,11.8-23.611,23.536-35.325,35.4
		c-55.442-55.335-110.787-110.755-166.165-166.154C1127.385,1264.843,1139.121,1253,1150.985,1241.286z"/>
	<path fill="#40c4ff" d="M985.825,819.304c20.344-75.604,40.547-151.237,60.799-226.874c16.103,4.291,32.188,8.68,48.32,12.892
		c-20.2,75.681-40.523,151.322-60.811,226.98C1018.026,827.964,1001.902,823.722,985.825,819.304z"/>
	<path fill="#40c4ff" d="M702.958,1173.328c-75.647,20.183-151.249,40.504-226.878,60.784c-4.335-16.091-8.577-32.215-12.995-48.292
		c75.642-20.347,151.31-40.567,226.976-60.826C694.357,1141.111,698.745,1157.196,702.958,1173.328z"/>
	<path fill="#40c4ff" d="M742.194,1241.286c-55.303,55.421-110.702,110.734-166.079,166.09c11.768,11.8,23.611,23.536,35.325,35.4
		c55.442-55.335,110.787-110.755,166.165-166.154C765.794,1264.843,754.058,1253,742.194,1241.286z"/>
	<path fill="#40c4ff" d="M1190.221,1173.328c75.647,20.183,151.249,40.504,226.878,60.784c4.335-16.091,8.577-32.215,12.995-48.292
		c-75.642-20.347-151.31-40.567-226.976-60.826C1198.822,1141.111,1194.433,1157.196,1190.221,1173.328z"/>
	<path fill="#40c4ff" d="M907.354,819.304C887.01,743.7,866.807,668.067,846.556,592.43c-16.103,4.291-32.188,8.68-48.32,12.892
		c20.2,75.681,40.523,151.322,60.811,226.98C875.153,827.964,891.277,823.722,907.354,819.304z"/>
	<path fill="#40c4ff" d="M1171.524,1207.839c-42.586,42.594-85.204,85.157-127.79,127.751c-11.768-11.811-23.6-23.557-35.336-35.4
		c39.455-39.386,78.856-78.822,118.264-118.251c14.443-53.844,28.895-107.683,43.277-161.545
		c16.124,4.242,32.213,8.616,48.325,12.902C1202.67,1091.472,1187.119,1149.661,1171.524,1207.839z"/>
	<path fill="#40c4ff" d="M721.655,1207.839c-15.595-58.178-31.146-116.367-46.741-174.544c16.112-4.286,32.201-8.66,48.325-12.902
		c14.382,53.862,28.834,107.702,43.277,161.545c39.408,39.43,78.809,78.865,118.264,118.251
		c-11.736,11.843-23.568,23.589-35.336,35.4C806.858,1292.995,764.241,1250.433,721.655,1207.839z"/>
	<path fill="#40c4ff" d="M946.589,818.24c58.181,15.583,116.35,31.21,174.53,46.794c-4.344,16.097-8.601,32.217-12.99,48.302
		c-53.837-14.476-107.689-28.88-161.541-43.294c-53.851,14.414-107.704,28.818-161.541,43.294
		c-4.388-16.085-8.645-32.205-12.99-48.302C830.24,849.451,888.409,833.824,946.589,818.24z"/>
	<path fill="#40c4ff" d="M1174.478,1348.461c11.832,11.746,23.579,23.589,35.411,35.336c-55.313,55.378-110.702,110.691-166.058,166.036
		c-11.682-11.886-23.718-23.429-35.432-35.293C1063.809,1459.227,1119.111,1403.817,1174.478,1348.461z"/>
	<path fill="#40c4ff" d="M1066.895,745.371c4.257-16.12,8.64-32.214,12.896-48.335c75.615,20.214,151.212,40.525,226.821,60.792
		c-4.452,16.06-8.431,32.255-12.848,48.332C1218.156,785.831,1142.518,765.642,1066.895,745.371z"/>
	<path fill="#40c4ff" d="M598.395,1140.086c-16.089,4.374-32.218,8.625-48.307,12.999c-20.302-75.591-40.51-151.216-60.763-226.828
		c16.134-4.174,32.149-8.826,48.281-13.039C557.804,988.86,578.139,1064.458,598.395,1140.086z"/>
	<path fill="#40c4ff" d="M718.701,1348.461c-11.832,11.746-23.579,23.589-35.411,35.336c55.313,55.378,110.702,110.691,166.058,166.036
		c11.682-11.886,23.718-23.429,35.432-35.293C829.37,1459.227,774.068,1403.817,718.701,1348.461z"/>
	<path fill="#40c4ff" d="M1294.784,1140.086c16.089,4.374,32.218,8.625,48.307,12.999c20.302-75.591,40.51-151.216,60.763-226.828
		c-16.134-4.174-32.149-8.826-48.281-13.039C1335.375,988.86,1315.04,1064.458,1294.784,1140.086z"/>
	<path fill="#40c4ff" d="M826.284,745.371c-4.257-16.12-8.64-32.214-12.896-48.335c-75.615,20.214-151.212,40.525-226.821,60.792
		c4.452,16.06,8.431,32.255,12.848,48.332C675.023,785.831,750.66,765.642,826.284,745.371z"/>
	<path fill="#40c4ff" d="M946.589,1465.627c11.842,11.862,23.714,23.693,35.541,35.57c21.382,21.167,42.12,43.117,65.474,62.151
		c13.204,11.168,30.716,15.144,47.543,16.559c14.651,0.911,29.398,0.697,43.974-1.007c13.268-1.179,24.425-9.249,35.4-16.055
		c11.811,11.746,23.546,23.568,35.368,35.304c-13.526,14.254-30.813,25.733-50.448,29.098c-26.815,4.898-54.392,8.896-81.561,4.426
		c-13.536-2.326-27.201-5.423-39.366-12.036c-15.701-8.177-29.109-20.031-41.359-32.678c-16.858-16.863-33.712-33.729-50.567-50.595
		c-16.855,16.866-33.709,33.732-50.567,50.595c-12.25,12.647-25.658,24.5-41.359,32.678c-12.164,6.613-25.829,9.71-39.366,12.036
		c-27.169,4.469-54.745,0.472-81.561-4.426c-19.635-3.365-36.922-14.844-50.448-29.098c11.821-11.736,23.557-23.557,35.368-35.304
		c10.975,6.806,22.132,14.876,35.4,16.055c14.576,1.704,29.323,1.918,43.974,1.007c16.827-1.415,34.339-5.391,47.543-16.559
		c23.354-19.034,44.092-40.984,65.474-62.151C922.875,1489.32,934.748,1477.489,946.589,1465.627z"/>
	<path fill="#40c4ff" d="M610.871,884.145c-16.194,4.324-32.376,8.69-48.575,12.994c-29.022,7.933-58.4,14.919-86.561,25.626
		c-16.274,5.851-28.473,19.029-38.112,32.894c-8.114,12.233-15.302,25.111-21.115,38.586c-5.613,12.08-4.203,25.778-3.796,38.685
		c-16.078,4.355-32.184,8.608-48.258,12.978c-5.582-18.841-6.879-39.551,0.024-58.238c9.166-25.672,19.492-51.552,36.947-72.847
		c8.782-10.56,18.297-20.845,30.106-28.074c14.933-9.509,31.902-15.193,48.979-19.479c23.033-6.167,46.066-12.331,69.1-18.494
		c-6.179-23.03-12.358-46.059-18.533-69.09c-4.827-16.932-8.389-34.47-7.62-52.157c0.355-13.841,4.505-27.224,9.259-40.109
		c9.714-25.764,26.964-47.647,44.614-68.42c12.732-15.321,31.316-24.553,50.424-29.14c4.253,16.106,8.622,32.18,12.89,48.281
		c-11.381,6.102-23.949,11.729-31.604,22.63c-8.764,11.771-16.323,24.435-22.86,37.579c-7.188,15.28-12.501,32.434-9.431,49.453
		c4.807,29.742,13.447,58.677,21.088,87.777C602.209,851.762,606.519,867.959,610.871,884.145z"/>
	<path fill="#40c4ff" d="M1282.308,884.145c4.352-16.186,8.662-32.384,13.034-48.564c7.641-29.101,16.28-58.035,21.088-87.777
		c3.07-17.019-2.243-34.173-9.431-49.453c-6.536-13.144-14.096-25.808-22.86-37.579c-7.655-10.901-20.223-16.528-31.604-22.63
		c4.267-16.102,8.637-32.176,12.89-48.281c19.107,4.586,37.692,13.818,50.424,29.14c17.649,20.774,34.9,42.657,44.614,68.42
		c4.754,12.886,8.904,26.268,9.26,40.109c0.769,17.686-2.793,35.225-7.62,52.157c-6.175,23.031-12.354,46.06-18.533,69.09
		c23.034,6.164,46.068,12.327,69.1,18.494c17.078,4.286,34.047,9.97,48.979,19.479c11.809,7.228,21.324,17.514,30.106,28.074
		c17.455,21.294,27.781,47.175,36.947,72.847c6.903,18.687,5.606,39.397,0.024,58.238c-16.074-4.37-32.18-8.622-48.258-12.978
		c0.406-12.907,1.817-26.605-3.796-38.685c-5.812-13.475-13-26.354-21.115-38.586c-9.639-13.865-21.838-27.043-38.112-32.894
		c-28.161-10.708-57.539-17.693-86.561-25.626C1314.684,892.836,1298.502,888.47,1282.308,884.145z"/>
	<path fill="#40c4ff" d="M1043.676,1134.026c19.679,19.665,39.36,39.329,59.037,58.999c-11.768,11.8-23.611,23.536-35.325,35.4
		c-40.273-40.219-80.541-80.443-120.799-120.677c-40.258,40.234-80.526,80.459-120.799,120.677
		c-11.714-11.864-23.557-23.6-35.325-35.4c19.677-19.669,39.358-39.333,59.037-58.999c-26.87,7.21-53.74,14.422-80.613,21.628
		c-4.335-16.091-8.577-32.215-12.995-48.292c54.967-14.768,109.936-29.529,164.909-44.276
		c-14.715-54.981-29.416-109.966-44.11-164.954c16.132-4.213,32.217-8.601,48.32-12.892c7.196,26.876,14.385,53.752,21.576,80.627
		c7.191-26.875,14.38-53.751,21.576-80.627c16.103,4.291,32.188,8.68,48.32,12.892c-14.694,54.987-29.395,109.972-44.11,164.954
		c54.973,14.747,109.942,29.508,164.909,44.276c-4.418,16.077-8.66,32.201-12.995,48.292
		C1097.417,1148.448,1070.547,1141.236,1043.676,1134.026z"/>
	<path fill="#40c4ff" d="M946.589,1251.262c51.993,52.089,104.072,104.082,156.124,156.114c-11.768,11.8-23.611,23.536-35.325,35.4
		c-40.275-40.22-80.538-80.446-120.799-120.682c-40.26,40.236-80.524,80.462-120.799,120.682
		c-11.714-11.864-23.557-23.6-35.325-35.4C842.517,1355.344,894.597,1303.351,946.589,1251.262z"/>
	<path fill="#40c4ff" d="M796.517,991.328c-71.107,18.982-142.174,38.088-213.261,57.15c-4.335-16.091-8.577-32.215-12.995-48.292
		c54.969-14.769,109.938-29.525,164.913-44.274c-14.715-54.984-29.42-109.967-44.114-164.956
		c16.132-4.213,32.217-8.601,48.32-12.892C758.415,849.157,777.402,920.257,796.517,991.328z"/>
	<path fill="#40c4ff" d="M1096.662,991.328c19.114-71.071,38.102-142.171,57.137-213.264c16.103,4.291,32.188,8.68,48.32,12.892
		c-14.694,54.989-29.399,109.971-44.114,164.956c54.975,14.749,109.944,29.505,164.913,44.274
		c-4.418,16.077-8.66,32.201-12.995,48.292C1238.837,1029.416,1167.769,1010.31,1096.662,991.328z"/>
	<path fill="#40c4ff" d="M946.589,1147.702c4.54-4.528,9.081-9.055,13.623-13.581c11.757,11.789,23.482,23.611,35.325,35.314
		c-16.219,16.415-32.636,32.636-48.948,48.956c-16.313-16.32-32.729-32.541-48.948-48.956
		c11.843-11.703,23.568-23.525,35.325-35.314C937.509,1138.646,942.05,1143.173,946.589,1147.702z"/>
	<path fill="#40c4ff" d="M886.202,1043.108c1.652,6.196,3.302,12.392,4.949,18.589c-16.088,4.287-32.189,8.531-48.246,12.935
		c-6.106-22.254-11.946-44.581-17.923-66.868c22.29-5.967,44.546-12.074,66.871-17.913c4.214,16.108,8.589,32.173,12.921,48.25
		C898.585,1039.772,892.394,1041.441,886.202,1043.108z"/>
	<path fill="#40c4ff" d="M1006.976,1043.108c-6.191-1.667-12.382-3.337-18.573-5.008c4.331-16.077,8.707-32.142,12.921-48.25
		c22.325,5.839,44.581,11.945,66.871,17.913c-5.977,22.287-11.816,44.615-17.923,66.868c-16.057-4.405-32.157-8.648-48.246-12.935
		C1003.675,1055.5,1005.325,1049.304,1006.976,1043.108z"/>
	<path fill="#40c4ff" d="M700.57,935.933c1.652,6.195,3.301,12.391,4.948,18.588c-16.088,4.287-32.189,8.531-48.246,12.935
		c-6.027-22.283-11.992-44.583-17.95-66.884c22.293-5.99,44.587-11.975,66.899-17.897c4.214,16.108,8.589,32.173,12.921,48.25
		C712.952,932.596,706.761,934.266,700.57,935.933z"/>
	<path fill="#40c4ff" d="M1192.609,935.933c-6.191-1.667-12.382-3.337-18.572-5.009c4.331-16.077,8.707-32.142,12.921-48.25
		c22.311,5.922,44.606,11.906,66.899,17.897c-5.959,22.301-11.923,44.601-17.95,66.884c-16.057-4.404-32.157-8.648-48.246-12.935
		C1189.307,948.325,1190.957,942.129,1192.609,935.933z"/>
	<path fill="#40c4ff" d="M946.589,1362.051c4.54-4.528,9.081-9.055,13.623-13.579c11.757,11.789,23.482,23.611,35.325,35.314
		c-16.284,16.361-32.614,32.676-48.948,48.987c-16.334-16.311-32.664-32.626-48.948-48.987
		c11.843-11.704,23.568-23.525,35.325-35.314C937.509,1352.997,942.05,1357.523,946.589,1362.051z"/>
	<path fill="#40c4ff" d="M515.614,829.149c1.151,6.12,2.713,12.168,4.276,18.188c-16.103,4.291-32.199,8.549-48.275,12.943
		c-5.025-19.062-7.188-39.196-3.777-58.714c15.197-12.713,33.715-20.907,52.736-26.086c4.233,16.119,8.593,32.188,12.928,48.279
		C527.508,825.414,521.489,827.086,515.614,829.149z"/>
	<path fill="#40c4ff" d="M1377.565,829.149c-5.875-2.063-11.894-3.734-17.889-5.39c4.335-16.091,8.696-32.16,12.928-48.279
		c19.021,5.18,37.538,13.373,52.736,26.086c3.411,19.518,1.248,39.651-3.777,58.714c-16.075-4.394-32.172-8.652-48.275-12.943
		C1374.852,841.317,1376.414,835.268,1377.565,829.149z"/>
	<path fill="#40c4ff" d="M946.589,1575.62c4.724-4.057,9.181-8.433,13.613-12.797c11.768,11.8,23.504,23.611,35.346,35.336
		c-13.996,13.883-30.351,25.823-48.959,32.627c-18.609-6.805-34.963-18.745-48.959-32.627
		c11.843-11.725,23.579-23.536,35.346-35.336C937.408,1567.187,941.865,1571.564,946.589,1575.62z"/>
</g>
</svg>
